/* XPM */
static char *c8b3871c4a8643a7be3ad6e82997cdb0Zs1FpznTz2OvUZ8t[] = {
/* columns rows colors chars-per-pixel */
"96 96 2 1 ",
"  c None",
". c black",
/* pixels */
"                                                                                                ",
"                                                                                                ",
"                                                                                                ",
"                                                                                                ",
"                                                                                                ",
"                                                                                                ",
"                                                                                                ",
"                                                                                                ",
"                                                                                                ",
"                                                                                                ",
"                                                                                                ",
"                                                                                                ",
"                                                                                                ",
"                                                                                                ",
"                                                                                                ",
"                                                                                                ",
"         ......................................................................                 ",
"       ..........................................................................               ",
"      ............................................................................              ",
"     ..............................................................................             ",
"     ..............................................................................             ",
"    ................................................................................            ",
"    ................................................................................            ",
"     ..............................................................................             ",
"      ............................................................................              ",
"        ........................................................................                ",
"          ....................................................................                  ",
"           ..................................................................                   ",
"             ..............................................................                     ",
"              ............................................................                      ",
"                ........................................................                        ",
"    .             ....................................................             .            ",
"    ..             ..................................................             ..            ",
"    ....             ..............................................             ....            ",
"    ......            ............................................            ......            ",
"    .......             ........................................             .......            ",
"    .........             ....................................             .........            ",
"    ..........             ..................................             ..........            ",
"    ............             ..............................             ............            ",
"    ..............            ............................            ..............            ",
"    ...............             ........................             ...............            ",
"    .................             ....................             .................            ",
"    ..................             ..................             ..................            ",
"    ....................             ..............             ....................            ",
"    ......................            ............            ......................            ",
"    .......................             ........             .......................            ",
"    .........................             ....             .........................            ",
"    ..........................             ..             ..........................            ",
"    ............................                        ............................            ",
"    ..............................                    ..............................            ",
"    ...............................                  ...............................            ",
"    .................................              .................................            ",
"    ..................................            ...........................                   ",
"    ....................................        ..........................                      ",
"    ......................................    ...........................                       ",
"    ....................................................................                        ",
"    ...................................................................                         ",
"    ..................................................................                          ",
"    .................................................................                           ",
"    .................................................................                           ",
"    .................................................................         ....              ",
"    ................................................................         ......             ",
"    ................................................................        ........            ",
"    ................................................................        ........            ",
"    .............................................................           ........            ",
"    ..........................................................              ........            ",
"    .........................................................               ........            ",
"    ........................................................                ........            ",
"    .......................................................                 ........            ",
"    ......................................................                  ........            ",
"    .....................................................                   ........            ",
"    .....................................................                   ........            ",
"    .....................................................         ............................  ",
"    ....................................................         .............................. ",
"    ....................................................        ................................",
"     ...................................................        ................................",
"     ...................................................        ................................",
"      ..................................................        ................................",
"       .................................................         .............................. ",
"         ...............................................          ............................  ",
"                                                                            ........            ",
"                                                                            ........            ",
"                                                                            ........            ",
"                                                                            ........            ",
"                                                                            ........            ",
"                                                                            ........            ",
"                                                                            ........            ",
"                                                                            ........            ",
"                                                                            ........            ",
"                                                                            ........            ",
"                                                                             ......             ",
"                                                                              ....              ",
"                                                                                                ",
"                                                                                                ",
"                                                                                                ",
"                                                                                                "
};
